<svg width="256" height="256" version="1.1" viewBox="0 0 67.73 67.73" xmlns="http://www.w3.org/2000/svg"><g transform="matrix(1.005 0 0 1.005 -.1847 -.01361)" fill="#0aa"><path d="m67.55 33.7a38.89 62.72 0 0 1-33.68 31.35 38.89 62.72 0 0 1-33.68-31.35" stroke-width=".2646"/><path d="m0.1837 33.7a38.89 62.72 0 0 1 33.68-31.35 38.89 62.72 0 0 1 33.68 31.35l-33.68 31.35z" stroke-width=".2647"/></g><path d="m55.42 53.16c-6.917 7.54-15.56 10.85-21.76 10.85-6.197 0-14.66-3.429-21.58-10.97-6.917-7.54-11.38-18.77-11.38-18.77s20.77 15.47 33.16 15.47c12.39 0 33.19-15.36 33.19-15.36s-4.712 11.24-11.63 18.78z" fill="#fff" stroke="#fff" stroke-linecap="round" stroke-width=".2646"/><g fill="none" stroke="#0aa" stroke-linecap="round" stroke-width="1.587"><path d="m59.79 37.83 1.448 2.214"/><path d="m53.97 42.07 1.439 2.22"/><path d="m48.15 45.24 1.171 2.372"/><path d="m42.33 47.36 0.9227 2.48"/><path d="m36.51 48.95 0.4786 2.602"/><path d="m24.87 50.37 0.9007-2.488"/><path d="m8.912 38.89-1.504 2.176"/><path d="m14.58 43.12-1.349 2.276"/><path d="m30.87 49.47-0.1816 2.639"/><path d="m20.09 45.77-1.038 2.434"/></g><circle cx="32.76" cy="55.47" r=".01659" fill="#0aa" stroke="#0aa" stroke-width=".2646"/><circle cx="31.75" cy="53.84" r=".01659" fill="#0aa" stroke="#0aa" stroke-width=".2646"/><text transform="scale(1.002 .9977)" x="22.575666" y="39.059029" fill="#ffffff" font-family="'Brush Script MT'" font-size="17.05px" stroke-width=".2665" style="line-height:1.25" xml:space="preserve"><tspan x="22.575666" y="39.059029" fill="#ffffff" font-family="'Brush Script MT'" font-size="17.05px" stroke-width=".2665">UA</tspan></text></svg>
