<svg xmlns="http://www.w3.org/2000/svg" width="1024" height="256" viewBox="0 0 270.9 67.73"><g fill="#0aa"><path d="M67.7 33.86a39.08 63.03 0 0 1-33.85 31.51A39.08 63.03 0 0 1 0 33.86"/><path d="M0 33.86A39.08 63.03 0 0 1 33.85 2.35 39.08 63.03 0 0 1 67.7 33.86L33.85 65.37z"/></g><path fill="#fff" stroke="#fff" stroke-linecap="round" stroke-width=".265" d="M55.42 53.16c-6.917 7.54-15.56 10.85-21.76 10.85-6.197 0-14.66-3.429-21.58-10.97C5.163 45.5.7 34.27.7 34.27s20.77 15.47 33.16 15.47 33.19-15.36 33.19-15.36-4.712 11.24-11.63 18.78z"/><g stroke="#0aa"><path fill="none" stroke-linecap="round" stroke-width="1.587" d="m59.79 37.83 1.448 2.214M53.97 42.07l1.439 2.22m-7.259.95 1.171 2.372m-6.991-.252.923 2.48m-6.743-.89.479 2.602m-12.12-1.182.9-2.488M8.909 38.89l-1.504 2.176m7.172 2.054-1.349 2.276m17.64 4.074-.182 2.639m-10.6-6.339-1.038 2.434"/><circle cx="32.76" cy="55.47" r=".017" fill="#0aa" stroke-width=".265"/><circle cx="31.75" cy="53.84" r=".017" fill="#0aa" stroke-width=".265"/></g><text xml:space="preserve" x="22.576" y="39.059" fill="#fff" stroke-width=".267" font-family="'Brush Script MT'" font-size="17.05" style="line-height:1.25" transform="scale(1.002 .9977)"><tspan x="22.576" y="39.059">UA</tspan></text><text xml:space="preserve" x="79.946" y="45.296" fill="#0aa" stroke-width=".265" font-family="'Brush Script MT'" font-size="38.1" style="line-height:1.25"><tspan x="79.946" y="45.296">Unseen Artisan</tspan></text></svg>